<svg width="24" height="20" viewBox="0 0 24 20" fill="none" xmlns="http://www.w3.org/2000/svg">
<g clip-path="url(#clip0_2029_2158)">
<path d="M4.55995 6.64181C4.41329 6.79043 4.22662 6.86479 3.99995 6.86479C3.77329 6.86479 3.57995 6.79043 3.41995 6.64181C3.27329 6.47965 3.19995 6.28368 3.19995 6.05397C3.19995 5.82427 3.27329 5.63503 3.41995 5.48641C3.57995 5.32425 3.77329 5.24316 3.99995 5.24316C4.22662 5.24316 4.41329 5.32425 4.55995 5.48641C4.71995 5.63503 4.79995 5.82427 4.79995 6.05397C4.79995 6.28368 4.71995 6.47965 4.55995 6.64181Z" fill="black"/>
<path d="M9.36 6.64181C9.21336 6.79043 9.02664 6.86479 8.8 6.86479C8.57336 6.86479 8.38 6.79043 8.22 6.64181C8.07336 6.47965 8 6.28368 8 6.05397C8 5.82427 8.07336 5.63503 8.22 5.48641C8.38 5.32425 8.57336 5.24316 8.8 5.24316C9.02664 5.24316 9.21336 5.32425 9.36 5.48641C9.52 5.63503 9.6 5.82427 9.6 6.05397C9.6 6.28368 9.52 6.47965 9.36 6.64181Z" fill="black"/>
<path d="M15.7599 6.64181C15.6133 6.79043 15.4265 6.86479 15.1999 6.86479C14.9733 6.86479 14.7799 6.79043 14.6199 6.64181C14.4733 6.47965 14.3999 6.28368 14.3999 6.05397C14.3999 5.82427 14.4733 5.63503 14.6199 5.48641C14.7799 5.32425 14.9733 5.24316 15.1999 5.24316C15.4265 5.24316 15.6133 5.32425 15.7599 5.48641C15.9199 5.63503 15.9999 5.82427 15.9999 6.05397C15.9999 6.28368 15.9199 6.47965 15.7599 6.64181Z" fill="black"/>
<path d="M20.56 6.64181C20.4133 6.79043 20.2266 6.86479 20 6.86479C19.7733 6.86479 19.58 6.79043 19.42 6.64181C19.2733 6.47965 19.2 6.28368 19.2 6.05397C19.2 5.82427 19.2733 5.63503 19.42 5.48641C19.58 5.32425 19.7733 5.24316 20 5.24316C20.2266 5.24316 20.4133 5.32425 20.56 5.48641C20.72 5.63503 20.8 5.82427 20.8 6.05397C20.8 6.28368 20.72 6.47965 20.56 6.64181Z" fill="black"/>
<path fill-rule="evenodd" clip-rule="evenodd" d="M1.6 6.05405C1.6 4.71062 2.67452 3.62162 4 3.62162H8.8C9.4208 3.62162 9.8272 3.74624 10.112 3.93119C10.2871 3.45459 10.5214 2.94938 10.844 2.48482C10.3038 2.17151 9.63088 2 8.8 2H4C1.79086 2 0 3.81508 0 6.05405C0 8.29287 1.79007 10.1081 3.99941 10.1081H8.8C10.2107 10.1081 11.1658 9.61368 11.79 8.77027C12.3382 8.02943 12.5718 7.08054 12.7586 6.32154L12.7761 6.25068C12.9862 5.39924 13.1554 4.763 13.49 4.31081C13.7658 3.938 14.2107 3.62162 15.2 3.62162H20.0004C21.3258 3.62162 22.4 4.71054 22.4 6.05405C22.4 7.39749 21.3255 8.48649 20 8.48649H15.2C14.5792 8.48649 14.1728 8.36187 13.888 8.17692C13.7129 8.65351 13.4786 9.15873 13.156 9.62324C13.6962 9.93662 14.3691 10.1081 15.2 10.1081H20C22.2091 10.1081 24 8.29303 24 6.05405C24 3.81524 22.2097 2 20.0004 2H15.2C13.7893 2 12.8342 2.49442 12.21 3.33784C11.6618 4.07868 11.4282 5.02757 11.2414 5.78657L11.2239 5.85743C11.0138 6.70886 10.8446 7.34511 10.51 7.7973C10.2342 8.17011 9.78928 8.48649 8.8 8.48649H3.99941C2.67412 8.48649 1.6 7.39765 1.6 6.05405Z" fill="black"/>
<path d="M3.20005 13.7569C2.97338 13.7569 2.78005 13.6825 2.62005 13.5339C2.47338 13.3717 2.40005 13.1758 2.40005 12.9461C2.40005 12.7164 2.47338 12.5271 2.62005 12.3785C2.78005 12.2163 2.97338 12.1353 3.20005 12.1353H7.20005C7.42669 12.1353 7.61341 12.2163 7.76005 12.3785C7.92005 12.5271 8.00005 12.7164 8.00005 12.9461C8.00005 13.1758 7.92005 13.3717 7.76005 13.5339C7.61341 13.6825 7.42669 13.7569 7.20005 13.7569H3.20005ZM1.60005 17.0001C1.37338 17.0001 1.18005 16.9258 1.02005 16.7771C0.873385 16.615 0.800049 16.419 0.800049 16.1893C0.800049 15.9596 0.873385 15.7704 1.02005 15.6217C1.18005 15.4596 1.37338 15.3785 1.60005 15.3785H4.00005C4.22671 15.3785 4.41338 15.4596 4.56005 15.6217C4.72005 15.7704 4.80005 15.9596 4.80005 16.1893C4.80005 16.419 4.72005 16.615 4.56005 16.7771C4.41338 16.9258 4.22671 17.0001 4.00005 17.0001H1.60005ZM7.20005 17.0001C6.97341 17.0001 6.78005 16.9258 6.62005 16.7771C6.47341 16.615 6.40005 16.419 6.40005 16.1893C6.40005 15.9596 6.47341 15.7704 6.62005 15.6217C6.78005 15.4596 6.97341 15.3785 7.20005 15.3785H13.6C13.8267 15.3785 14.0134 15.4596 14.16 15.6217C14.32 15.7704 14.4 15.9596 14.4 16.1893C14.4 16.419 14.32 16.615 14.16 16.7771C14.0134 16.9258 13.8267 17.0001 13.6 17.0001H7.20005ZM20 17.0001C19.7734 17.0001 19.58 16.9258 19.42 16.7771C19.2734 16.615 19.2 16.419 19.2 16.1893C19.2 15.9596 19.2734 15.7704 19.42 15.6217C19.58 15.4596 19.7734 15.3785 20 15.3785H23.2C23.4267 15.3785 23.6134 15.4596 23.76 15.6217C23.92 15.7704 24 15.9596 24 16.1893C24 16.419 23.92 16.615 23.76 16.7771C23.6134 16.9258 23.4267 17.0001 23.2 17.0001H20ZM10.4 13.7569C10.1734 13.7569 9.98005 13.6825 9.82005 13.5339C9.67341 13.3717 9.60005 13.1758 9.60005 12.9461C9.60005 12.7164 9.67341 12.5271 9.82005 12.3785C9.98005 12.2163 10.1734 12.1353 10.4 12.1353C10.6267 12.1353 10.8134 12.2163 10.96 12.3785C11.12 12.5271 11.2 12.7164 11.2 12.9461C11.2 13.1758 11.12 13.3717 10.96 13.5339C10.8134 13.6825 10.6267 13.7569 10.4 13.7569ZM16.8 17.0001C16.5734 17.0001 16.38 16.9258 16.22 16.7771C16.0734 16.615 16 16.419 16 16.1893C16 15.9596 16.0734 15.7704 16.22 15.6217C16.38 15.4596 16.5734 15.3785 16.8 15.3785C17.0267 15.3785 17.2134 15.4596 17.3601 15.6217C17.5201 15.7704 17.6 15.9596 17.6 16.1893C17.6 16.419 17.5201 16.615 17.3601 16.7771C17.2134 16.9258 17.0267 17.0001 16.8 17.0001Z" fill="black"/>
<path d="M13.02 13.5339C13.18 13.6825 13.3734 13.7569 13.6 13.7569H16C16.2267 13.7569 16.4134 13.6825 16.56 13.5339C16.72 13.3717 16.8 13.1758 16.8 12.9461C16.8 12.7164 16.72 12.5271 16.56 12.3785C16.4134 12.2163 16.2267 12.1353 16 12.1353H13.6C13.3734 12.1353 13.18 12.2163 13.02 12.3785C12.8734 12.5271 12.8 12.7164 12.8 12.9461C12.8 13.1758 12.8734 13.3717 13.02 13.5339Z" fill="black"/>
<path d="M18.6199 13.5339C18.7799 13.6825 18.9733 13.7569 19.1999 13.7569H21.5999C21.8265 13.7569 22.0133 13.6825 22.1599 13.5339C22.3199 13.3717 22.3999 13.1758 22.3999 12.9461C22.3999 12.7164 22.3199 12.5271 22.1599 12.3785C22.0133 12.2163 21.8265 12.1353 21.5999 12.1353H19.1999C18.9733 12.1353 18.7799 12.2163 18.6199 12.3785C18.4733 12.5271 18.3999 12.7164 18.3999 12.9461C18.3999 13.1758 18.4733 13.3717 18.6199 13.5339Z" fill="black"/>
</g>
<defs>
<clipPath id="clip0_2029_2158">
<rect width="24" height="15" fill="white" transform="translate(0 2)"/>
</clipPath>
</defs>
</svg>
