<svg width="16" height="16" viewBox="0 0 16 16" fill="none" xmlns="http://www.w3.org/2000/svg">
<path d="M9.0459 1.33301C9.66996 1.33301 10.2695 1.57657 10.7168 2.01172C10.9756 2.26344 11.1718 2.57321 11.2881 2.91504C11.4043 3.25681 11.4374 3.62124 11.3857 3.97852C11.7478 3.92702 12.1172 3.95958 12.4648 4.07324C12.8123 4.18684 13.129 4.37854 13.3906 4.63379L13.4189 4.66211C13.6379 4.87507 13.8118 5.12978 13.9307 5.41113C14.0496 5.69262 14.1113 5.99522 14.1113 6.30078C14.1113 6.60636 14.0496 6.90893 13.9307 7.19043C13.8118 7.47179 13.6379 7.72648 13.4189 7.93945L8.58203 12.6826C8.56751 12.6968 8.55575 12.7137 8.54785 12.7324C8.53996 12.7511 8.53613 12.7717 8.53613 12.792C8.53618 12.8121 8.54007 12.832 8.54785 12.8506C8.55572 12.8692 8.56758 12.8863 8.58203 12.9004L9.5752 13.875C9.61901 13.9176 9.65395 13.9691 9.67773 14.0254C9.70148 14.0817 9.71387 14.1421 9.71387 14.2031C9.71386 14.2642 9.7015 14.3246 9.67773 14.3809C9.65395 14.4372 9.61901 14.4886 9.5752 14.5312C9.48575 14.618 9.36583 14.666 9.24121 14.666C9.11658 14.666 8.99665 14.6181 8.90723 14.5312L7.91406 13.5566C7.81177 13.4572 7.73033 13.3384 7.6748 13.207C7.6193 13.0757 7.59083 12.9346 7.59082 12.792C7.59082 12.6494 7.61932 12.5083 7.6748 12.377C7.73032 12.2456 7.8118 12.1267 7.91406 12.0273L12.751 7.2832C12.8821 7.15543 12.9864 7.00268 13.0576 6.83398C13.1289 6.66509 13.166 6.48313 13.166 6.2998C13.166 6.11664 13.1289 5.93535 13.0576 5.7666C12.9864 5.5979 12.8821 5.44516 12.751 5.31738L12.7227 5.29004C12.4545 5.02907 12.0949 4.88215 11.7207 4.88184C11.3467 4.88164 10.9872 5.02767 10.7188 5.28809L6.73438 9.19629L6.7334 9.19727L6.67871 9.25098C6.58928 9.33796 6.46948 9.38664 6.34473 9.38672C6.2198 9.38672 6.09928 9.33812 6.00977 9.25098C5.96597 9.20837 5.931 9.15687 5.90723 9.10059C5.88357 9.04441 5.87109 8.98381 5.87109 8.92285C5.87112 8.86184 5.8835 8.80133 5.90723 8.74512C5.93095 8.68896 5.96611 8.63825 6.00977 8.5957L10.0508 4.63281C10.1818 4.50486 10.2854 4.35142 10.3564 4.18262C10.4274 4.01386 10.464 3.83249 10.4639 3.64941C10.4637 3.46637 10.4267 3.28482 10.3555 3.11621C10.2842 2.94779 10.1798 2.79555 10.0488 2.66797C9.7804 2.40673 9.42047 2.25977 9.0459 2.25977C8.6714 2.25982 8.31135 2.40677 8.04297 2.66797L2.69531 7.91211C2.60584 7.99897 2.48603 8.04785 2.36133 8.04785C2.23662 8.04784 2.11681 7.99898 2.02734 7.91211C1.98353 7.8695 1.94859 7.81802 1.9248 7.76172C1.9011 7.7055 1.88867 7.645 1.88867 7.58398C1.88869 7.52293 1.90105 7.4625 1.9248 7.40625C1.94856 7.35002 1.98361 7.29941 2.02734 7.25684L7.375 2.01172C7.82228 1.5765 8.42182 1.33306 9.0459 1.33301ZM9.0459 3.1875C9.17083 3.1875 9.29134 3.23609 9.38086 3.32324C9.42454 3.36578 9.45966 3.4165 9.4834 3.47266C9.50712 3.52881 9.51849 3.58944 9.51855 3.65039C9.51855 3.71151 9.50718 3.7728 9.4834 3.8291C9.45966 3.88526 9.42454 3.93598 9.38086 3.97852L5.4248 7.85742C5.29346 7.98528 5.18945 8.13875 5.11816 8.30762C5.04695 8.47641 5.00977 8.65761 5.00977 8.84082C5.00977 9.02414 5.04687 9.20611 5.11816 9.375C5.18944 9.54366 5.2936 9.69649 5.4248 9.82422C5.69322 10.0854 6.05319 10.2314 6.42773 10.2314C6.8023 10.2314 7.16224 10.0855 7.43066 9.82422L11.3857 5.94531C11.4752 5.85828 11.5949 5.80964 11.7197 5.80957C11.8447 5.80957 11.9652 5.85816 12.0547 5.94531C12.0984 5.98783 12.1335 6.03858 12.1572 6.09473C12.181 6.15103 12.1934 6.21232 12.1934 6.27344C12.1933 6.33443 12.181 6.39498 12.1572 6.45117C12.1335 6.50735 12.0984 6.55803 12.0547 6.60059L8.09863 10.4795C7.65122 10.9147 7.05189 11.1582 6.42773 11.1582C5.80359 11.1582 5.20423 10.9147 4.75684 10.4795C4.53779 10.2665 4.36303 10.0119 4.24414 9.73047C4.12527 9.449 4.06445 9.14636 4.06445 8.84082C4.06446 8.53527 4.12525 8.23264 4.24414 7.95117C4.36304 7.66968 4.53777 7.41519 4.75684 7.20215L8.71191 3.32324C8.80137 3.23617 8.92107 3.18756 9.0459 3.1875Z" fill="#777D85"/>
</svg>
